<svg version="1.1" id="Layer_1" xmlns="http://www.w3.org/2000/svg" xmlns:xlink="http://www.w3.org/1999/xlink" viewBox="0 0 511.981 511.981" xml:space="preserve" fill="#000000"><g id="SVGRepo_bgCarrier" stroke-width="0"></g><g id="SVGRepo_tracerCarrier" stroke-linecap="round" stroke-linejoin="round"></g><g id="SVGRepo_iconCarrier"> <path style="fill:#ED5564;" d="M460.201,386.344l-1.812-0.516c-26.469-7.125-35.42-13.938-47.2-18.422 c-41.797-15.921-52.671-27.405-55.452-32.827c-0.109-0.188-0.188-0.406-0.281-0.594l-0.344-48.56l-99.122-1.123l-99.121,1.125 l-0.344,48.56c-0.094,0.188-0.172,0.406-0.281,0.594c-2.781,5.422-13.64,16.906-55.451,32.827 c-11.78,4.484-20.733,11.297-47.201,18.422l-1.812,0.516c-24.093,7.968-40.311,30.312-40.311,55.528v70.107h489.043v-70.107 C500.511,416.656,484.294,394.312,460.201,386.344z"></path> <rect x="213.32" y="319.99" style="fill:#F6BB42;" width="85.34" height="191.99"></rect> <g> <polygon style="fill:#FFCE54;" points="156.681,286.536 156.525,333.986 202.664,393.984 255.99,363.079 "></polygon> <polygon style="fill:#FFCE54;" points="355.455,284.302 255.99,363.079 309.316,393.984 355.455,333.986 "></polygon> </g> <g> <path style="fill:#434A54;" d="M263.537,461.762c4.156,4.172,4.156,10.938,0,15.094c-4.172,4.156-10.922,4.156-15.094,0 c-4.155-4.156-4.155-10.922,0-15.094C252.615,457.607,259.365,457.607,263.537,461.762z"></path> <path style="fill:#434A54;" d="M263.537,419.109c4.156,4.155,4.156,10.904,0,15.092c-4.172,4.156-10.922,4.156-15.094,0 c-4.155-4.188-4.155-10.937,0-15.092C252.615,414.953,259.365,414.953,263.537,419.109z"></path> <path style="fill:#434A54;" d="M266.662,10.663c0,5.891-4.781,10.672-10.672,10.672s-10.671-4.781-10.671-10.672 S250.099,0,255.99,0C261.881,0,266.662,4.772,266.662,10.663z"></path> </g> <path style="fill:#EAC6BB;" d="M393.532,191.485c0,89.379-85.185,171.625-137.542,171.625c-52.342,0-137.542-82.246-137.542-171.625 c0-89.372,61.576-148.338,137.542-148.338S393.532,102.113,393.532,191.485z"></path> <path style="fill:#ED5564;" d="M255.99,10.663c-77.06,0-141.932,63.552-141.932,141.94l-0.016,39.389h283.88l0.016-39.389 C397.938,74.215,333.05,10.663,255.99,10.663z"></path> <path style="fill:#FFCE54;" d="M255.99,138.658c125.198,0,154.214,54.576,154.214,54.576c2.749,5.18,0.203,9.421-5.672,9.421 H107.449c-5.875,0-8.422-4.242-5.672-9.421C101.777,193.234,130.792,138.658,255.99,138.658z"></path> <path style="fill:#F6BB42;" d="M408.766,190.977c-1.094,0.64-2.516,1.007-4.234,1.007H107.449c-1.719,0-3.141-0.367-4.234-1.007 c-1,1.437-1.438,2.257-1.438,2.257c-2.75,5.18-0.203,9.421,5.672,9.421h297.083c5.875,0,8.421-4.242,5.672-9.421 C410.204,193.234,409.766,192.414,408.766,190.977z"></path> <path style="fill:#434A54;" d="M255.974,127.994c-2.031,0-4.109-0.586-5.938-1.812c-4.89-3.281-6.187-9.914-2.906-14.804 l10.172-15.14h-22.64c-3.938,0-7.562-2.172-9.421-5.648c-1.844-3.477-1.641-7.695,0.562-10.969l21.326-31.756 c3.297-4.891,9.922-6.195,14.812-2.906c4.891,3.281,6.188,9.914,2.906,14.805l-10.172,15.139h22.641 c3.952,0,7.562,2.172,9.421,5.648c1.844,3.477,1.641,7.695-0.562,10.969l-21.327,31.756 C262.787,126.338,259.412,127.994,255.974,127.994z"></path> </g></svg>